<svg width="100" height="100" viewBox="0 0 100 100" fill="none" xmlns="http://www.w3.org/2000/svg">
<g clip-path="url(#clip0_228_1150)">
<path d="M50.0009 100C77.6149 100 100 77.6149 100 49.9991C100 22.3869 77.6149 0 50.0009 0C22.3869 0 0 22.3869 0 50.0009C0 77.6149 22.3869 100 50.0009 100Z" fill="black"/>
<path d="M50.0009 98.9985C77.0611 98.9985 98.9985 77.0611 98.9985 50.0009C98.9985 22.9389 77.0629 1.00159 50.0009 1.00159C22.9389 1.00159 1.00159 22.9389 1.00159 50.0009C1.00159 77.0593 22.9389 98.9985 50.0009 98.9985Z" fill="white"/>
<path d="M50.0009 86.0194C69.8919 86.0194 86.0194 69.8937 86.0194 50.0009C86.0194 30.1081 69.8919 13.9805 50.0009 13.9805C30.108 13.9805 13.9805 30.1081 13.9805 50.0009C13.9805 69.8937 30.108 86.0194 50.0009 86.0194ZM10.983 51.407L12.693 52.1443L12.6589 55.0087L2.81946 50.8964L2.85542 47.9492L12.7884 44.1587L12.7542 47.0375L11.028 47.6903L10.983 51.407ZM13.6263 34.7527L14.8688 31.7641L16.8791 32.6021L14.5991 38.081L5.46992 34.2833L6.50744 31.7911L13.6263 34.7527Z" fill="black"/>
<path d="M16.6885 19.8029L17.9076 20.9178L19.9054 18.7312L21.5129 20.2003L19.5152 22.3869L22.3814 25.005L20.5599 26.9973L13.2612 20.328L17.2819 15.9261L18.8894 17.3934L16.6885 19.8029ZM30.3274 16.3056L30.491 18.1594L27.9538 19.4883L26.9019 8.87744L29.5128 7.50905L37.5649 14.4535L35.0151 15.7895L33.6198 14.5793L30.3274 16.3056ZM51.9302 12.4467L48.5803 12.7129L45.741 9.12378L45.7141 9.12558L46.0144 12.9143L43.3243 13.1264L42.5422 3.27263L46.5628 2.95436C48.6091 2.79073 50.2346 3.5963 50.4 5.70192C50.5079 7.06132 49.8048 8.30203 48.3555 8.66526L51.9302 12.4467ZM68.5918 11.3858C67.6118 14.4337 64.6251 15.8416 61.4514 14.8203C58.2795 13.7971 56.6791 10.9129 57.6591 7.86688C58.5762 5.02043 61.8416 3.86782 64.6863 4.78307C67.5309 5.69833 69.5071 8.54119 68.5918 11.3858ZM79.0192 12.4234L80.954 14.2431L78.8646 19.5368L84.1116 17.219L86.0661 19.0603L80.8156 27.8622L78.8844 25.9796L81.8171 20.8207L81.7974 20.8027L76.0793 23.2356L75.2971 22.5001L77.4656 16.7227L77.4459 16.7047L72.5567 19.9828L70.5788 18.1648L79.0192 12.4234ZM91.6548 32.6632L90.1282 33.2962L91.2951 36.1067L89.2848 36.941L88.1178 34.1305L86.5427 34.7832L87.7726 37.7484L85.7623 38.5809L83.5002 33.1254L92.6312 29.3367L94.895 34.7922L92.8847 35.6248L91.6548 32.6632ZM92.7498 54.3452C89.5527 54.4567 87.2152 52.1263 87.0983 48.7944C86.9868 45.4642 89.1572 42.9774 92.356 42.8659C95.3428 42.7652 97.5347 45.4444 97.6372 48.4311C97.7415 51.4161 95.7384 54.2409 92.7498 54.3452Z" fill="black"/>
<path d="M5.89246 49.4597V49.4884L9.02482 50.641L9.05359 48.3952L5.89246 49.4597ZM29.6243 10.9003L29.6009 10.9129L30.0721 14.2179L32.0608 13.175L29.6243 10.9003ZM45.5828 7.47846L45.8435 7.45688C46.721 7.38855 47.6974 7.153 47.6129 6.07951C47.5284 5.00782 46.5268 4.9305 45.6493 5.00062L45.3886 5.0186L45.5828 7.47846ZM60.3276 8.74076C60.2023 9.1078 60.1519 9.49626 60.1795 9.88311C60.207 10.27 60.312 10.6474 60.488 10.9929C60.6641 11.3385 60.9077 11.6452 61.2044 11.895C61.5012 12.1447 61.845 12.3323 62.2156 12.4467C62.5835 12.5703 62.9725 12.6187 63.3594 12.5892C63.7464 12.5597 64.1235 12.4528 64.4684 12.2749C64.8133 12.097 65.119 11.8517 65.3674 11.5535C65.6158 11.2553 65.8018 10.9103 65.9144 10.5389C66.3316 9.24064 65.4559 7.64928 63.9221 7.1548C62.3864 6.66031 60.7465 7.4425 60.3276 8.74076ZM92.4388 45.6764C92.051 45.6829 91.6685 45.7672 91.3138 45.9242C90.9592 46.0812 90.6396 46.3077 90.3741 46.5904C90.1085 46.8731 89.9024 47.2061 89.7678 47.5698C89.6332 47.9336 89.5729 48.3206 89.5905 48.708C89.5991 49.0959 89.6855 49.478 89.8446 49.8318C90.0037 50.1856 90.2323 50.5039 90.5167 50.7677C90.8012 51.0315 91.1357 51.2355 91.5004 51.3675C91.8652 51.4996 92.2528 51.5571 92.6402 51.5365C94.0032 51.4898 95.2043 50.1268 95.1486 48.5174C95.0928 46.9063 93.8018 45.6278 92.4388 45.6764ZM50.4216 85.088L50.4198 14.9138C69.57 15.1044 85.088 30.741 85.088 50.0009C85.088 69.2608 69.579 84.8956 50.3551 85.088H50.4216ZM15.1888 54.4297C16.3514 63.6047 21.0944 71.948 28.3836 77.6401L28.3782 54.4333H15.1888V54.4297ZM28.362 22.3779L28.3782 43.7973L15.4514 43.7937C16.987 35.1231 21.7089 27.5961 28.362 22.3779ZM49.5801 43.7955H39.0124L39.0214 16.6652C42.4302 15.543 45.9915 14.9523 49.5801 14.9138V43.7955ZM49.5801 85.088C45.9862 85.0498 42.4198 84.4566 39.007 83.3294L39.0124 54.4315H49.5801V85.088Z" fill="white"/>
<path d="M60.279 29.7071H73.0387V28.3782H60.279V29.7071ZM60.279 27.2706H73.0387V26.2528H60.279V27.2706ZM69.2734 25.6792C69.4842 25.6792 69.6904 25.6167 69.8658 25.4995C70.0411 25.3824 70.1778 25.2158 70.2585 25.021C70.3392 24.8261 70.3603 24.6117 70.3192 24.4049C70.278 24.1981 70.1765 24.0081 70.0273 23.8589C69.8782 23.7098 69.6882 23.6083 69.4814 23.5671C69.2745 23.526 69.0601 23.5471 68.8653 23.6278C68.6705 23.7085 68.5039 23.8452 68.3868 24.0205C68.2696 24.1959 68.207 24.402 68.207 24.6129C68.2075 24.8956 68.32 25.1665 68.5199 25.3664C68.7198 25.5663 68.9907 25.6788 69.2734 25.6792ZM64.6216 77.6203C63.1651 77.6203 61.9873 76.5306 61.9873 75.0759C61.9873 73.6248 63.1651 72.3572 64.6216 72.3572L69.7588 72.359C70.3145 72.359 70.7622 71.9094 70.7622 71.3538C70.7632 71.0857 70.6584 70.8281 70.4705 70.6369C70.2826 70.4456 70.0269 70.3362 69.7588 70.3325H61.518C60.2383 70.332 59.0112 69.8233 58.1065 68.9183C57.2018 68.0132 56.6936 66.7859 56.6936 65.5062C56.6936 62.8432 58.8531 60.7915 61.518 60.7915L71.6181 60.7843C72.2421 60.7843 72.7474 60.4571 72.7474 59.8367C72.7488 59.5346 72.631 59.2441 72.4196 59.0283C72.2082 58.8125 71.9202 58.6888 71.6181 58.6841H61.4299C60.4618 58.7056 59.4992 58.5336 58.5985 58.178C57.6979 57.8224 56.8773 57.2905 56.1851 56.6134C55.4928 55.9364 54.9428 55.1279 54.5673 54.2354C54.1917 53.3429 53.9983 52.3843 53.9983 51.416C53.9983 50.4477 54.1917 49.4892 54.5673 48.5966C54.9428 47.7041 55.4928 46.8956 56.1851 46.2186C56.8773 45.5415 57.6979 45.0096 58.5985 44.654C59.4992 44.2985 60.4618 44.1264 61.4299 44.1479L71.2207 44.1551C71.9814 44.1551 72.5981 43.4934 72.5981 42.7328C72.5981 41.9704 71.9814 41.3986 71.2207 41.3986L60.1873 41.404C60.7196 39.1005 62.2264 38.7445 63.5535 38.7463H68.6925C68.8326 38.7466 68.9714 38.7191 69.1009 38.6656C69.2304 38.6121 69.348 38.5336 69.4471 38.4345C69.5461 38.3355 69.6247 38.2178 69.6782 38.0884C69.7317 37.9589 69.7591 37.8201 69.7588 37.68C69.7588 37.0938 69.2823 36.7054 68.6925 36.7054H63.5535C61.34 36.7054 60.2773 34.7562 60.1873 33.6953H65.5044C65.9468 32.2766 66.8333 31.5681 67.8079 31.5681H73.4792C75.4284 31.5681 76.225 30.3274 76.403 29.7952C77.7318 30.4155 82.5149 34.2258 82.5149 40.6056C82.5149 46.9854 76.8453 50.2634 73.2994 50.2886H61.4263C61.1272 50.2886 60.8405 50.4074 60.629 50.6188C60.4176 50.8302 60.2988 51.117 60.2988 51.416C60.2988 51.715 60.4176 52.0018 60.629 52.2132C60.8405 52.4247 61.1272 52.5434 61.4263 52.5434L72.5909 52.5345C76.1207 52.5345 78.9815 55.5086 78.9815 59.0365C78.9815 62.5663 76.1207 65.339 72.5909 65.339L61.9567 65.3264C61.6742 65.3264 61.4032 65.4387 61.2034 65.6385C61.0036 65.8383 60.8913 66.1093 60.8913 66.3918C60.8913 66.6744 61.0036 66.9454 61.2034 67.1452C61.4032 67.345 61.6742 67.4572 61.9567 67.4572L70.0214 67.4644C71.9238 67.4644 73.4666 69.0072 73.4666 70.9115C73.4666 72.8175 71.9238 74.3351 70.0214 74.3351L65.1466 74.3495C64.9306 74.3495 64.7234 74.4353 64.5706 74.5881C64.4179 74.7408 64.3321 74.948 64.3321 75.1641C64.3321 75.3801 64.4179 75.5873 64.5706 75.74C64.7234 75.8928 64.9306 75.9786 65.1466 75.9786H68.8903C70.1976 75.984 71.6595 77.9098 68.8472 78.9743C68.8706 78.4205 68.7807 77.6221 67.6065 77.6221C66.4377 77.6239 64.6216 77.6203 64.6216 77.6203Z" fill="black"/>
<path d="M61.0991 37.7286C59.0168 38.7032 58.5079 41.6252 58.6158 42.6447L55.6938 44.6604C55.5995 44.7629 55.4854 44.8453 55.3584 44.9026C55.2314 44.9599 55.0941 44.9909 54.9548 44.9938C54.8156 44.9968 54.6771 44.9715 54.5478 44.9196C54.4186 44.8677 54.3011 44.7901 54.2025 44.6917C54.104 44.5932 54.0263 44.4759 53.9742 44.3467C53.9221 44.2175 53.8967 44.079 53.8995 43.9398C53.9022 43.8005 53.9331 43.6632 53.9902 43.5361C54.0473 43.409 54.1296 43.2948 54.232 43.2004L56.1146 41.8913C57.0442 41.2709 56.868 40.2532 56.735 39.4117C56.6037 38.5701 55.7172 38.9675 55.4493 39.2786C55.0537 39.676 54.5053 39.9223 53.8993 39.9223C52.6874 39.9223 51.7056 38.9837 51.7056 37.7718C51.7057 37.3381 51.8344 36.9142 52.0753 36.5536C52.3162 36.193 52.6587 35.9119 53.0593 35.7458C53.4599 35.5798 53.9008 35.5362 54.3262 35.6206C54.7516 35.705 55.1424 35.9135 55.4493 36.22C55.7154 36.531 56.6037 36.9302 56.735 36.0869C56.868 35.2454 57.0442 34.2258 56.1146 33.6055L54.232 32.2982C54.136 32.2022 54.0598 32.0883 54.0079 31.9629C53.9559 31.8374 53.9292 31.703 53.9292 31.5673C53.9292 31.4315 53.9559 31.2971 54.0079 31.1717C54.0598 31.0463 54.136 30.9323 54.232 30.8363C54.3279 30.7403 54.4419 30.6642 54.5673 30.6123C54.6927 30.5603 54.8272 30.5336 54.9629 30.5336C55.0986 30.5336 55.2331 30.5603 55.3585 30.6123C55.4839 30.6642 55.5979 30.7403 55.6938 30.8363L58.6158 32.8521C58.4396 33.6972 59.0168 36.754 61.0991 37.7286Z" fill="black"/>
</g>
<defs>
<clipPath id="clip0_228_1150">
<rect width="100" height="100" fill="white"/>
</clipPath>
</defs>
</svg>
