<svg width="100" height="100" viewBox="0 0 100 100" fill="none" xmlns="http://www.w3.org/2000/svg">
<path fill-rule="evenodd" clip-rule="evenodd" d="M50.0002 0C77.5394 0 100 22.4609 100 50C100 77.5393 77.5394 100 50.0002 100C22.4611 100 0 77.5393 0 50C0 22.4609 22.4611 0 50.0002 0Z" fill="black"/>
<path d="M20.9506 35.0046L9.15222 24.8568L13.5702 19.7201C14.4693 18.6749 15.3109 17.9407 16.0899 17.513C16.8739 17.0846 17.667 16.9069 18.4712 16.9777C19.2723 17.0462 19.948 17.3112 20.492 17.779C20.9945 18.2113 21.3326 18.7793 21.5035 19.4808C21.6775 20.179 21.6232 20.9698 21.3472 21.8464C22.2684 21.1975 23.1711 20.8706 24.0573 20.857C24.9464 20.8456 25.7343 21.1352 26.4211 21.7258C26.9639 22.1884 27.3747 22.7863 27.6117 23.459C27.8537 24.1383 27.9311 24.7874 27.8469 25.4078C27.7627 26.0283 27.5245 26.6939 27.1412 27.4063C26.7576 28.1188 26.1906 28.9117 25.4396 29.7849L20.9506 35.0046ZM15.6701 27.3085L18.216 24.3486C18.904 23.5484 19.3533 22.9316 19.5642 22.5032C19.8404 21.9429 19.9444 21.4276 19.8697 20.9587C19.7949 20.49 19.553 20.0768 19.1408 19.7221C18.7509 19.3866 18.3115 19.1973 17.8283 19.1588C17.3401 19.1213 16.868 19.2585 16.413 19.5656C15.9552 19.8759 15.3027 20.523 14.4555 21.5079L12.1042 24.2419L15.6701 27.3085ZM21.1174 31.9936L24.047 28.5875C24.5512 28.0012 24.8856 27.5735 25.0526 27.3066C25.3457 26.8327 25.5372 26.393 25.6273 25.983C25.7204 25.5748 25.6981 25.1564 25.5686 24.7292C25.4337 24.3026 25.1835 23.9267 24.8072 23.603C24.3678 23.2249 23.8735 23.027 23.3217 23.0074C22.773 22.9899 22.2324 23.1569 21.7003 23.509C21.1741 23.8599 20.5325 24.4723 19.7842 25.3423L17.063 28.5063L21.1174 31.9936ZM40.5674 17.5722V4.22647H44.0859L48.2622 13.6756C48.6486 14.5552 48.9323 15.2138 49.1049 15.652C49.3063 15.1672 49.6187 14.4523 50.0459 13.5111L54.2715 4.22647H57.4159V17.5722H55.1635V6.40146L50.0336 17.5722H47.9251L42.8198 6.21172V17.5722H40.5674ZM72.4836 25.3651L80.6496 14.2926L81.7639 15.6679L76.2336 22.705C75.6644 23.4365 75.0738 24.151 74.4625 24.8477C75.7782 24.2114 76.5365 23.8471 76.7458 23.7554L85.2924 20.0222L86.6038 21.6405L82.5427 27.3344C81.5387 28.7495 80.5299 30.001 79.5202 31.089C80.2763 30.6874 81.1654 30.2483 82.1789 29.7706L90.1131 25.9709L91.2065 27.3201L78.61 32.925L77.5625 31.632L83.7137 23.1109C84.2286 22.3967 84.5471 21.9629 84.6697 21.8089C84.1087 22.0871 83.6241 22.3158 83.2145 22.4953L73.5923 26.7329L72.4836 25.3651Z" fill="white"/>
<path fill-rule="evenodd" clip-rule="evenodd" d="M79.5359 50.4953C79.5359 66.4906 66.4905 79.536 50.4952 79.536V50.4953H79.5359Z" fill="#00ACEC"/>
<path fill-rule="evenodd" clip-rule="evenodd" d="M79.5359 49.5049C79.5359 33.5099 66.4905 20.4642 50.4952 20.4642V49.5049H79.5359Z" fill="white"/>
<path fill-rule="evenodd" clip-rule="evenodd" d="M20.4645 49.5049C20.4645 33.5099 33.5099 20.4642 49.5052 20.4642V49.5049H20.4645Z" fill="#00ACEC"/>
<path fill-rule="evenodd" clip-rule="evenodd" d="M20.4645 50.4953C20.4645 66.4906 33.5099 79.536 49.5052 79.536V50.4953H20.4645Z" fill="white"/>
</svg>
