<svg width="160" height="100" viewBox="0 0 160 100" fill="none" xmlns="http://www.w3.org/2000/svg">
<path fill-rule="evenodd" clip-rule="evenodd" d="M43.733 63.8794C34.2736 78.2523 22.4808 82.3067 14.1272 82.3067C6.14304 82.3067 0 78.8675 0 72.8464C0 65.5995 9.58223 58.7193 17.9359 58.7193C21.8665 58.7193 25.3066 61.1774 25.3066 64.7394C25.3066 68.0567 22.2351 73.2141 14.2509 73.2141C11.1794 73.2141 8.84598 72.233 8.84598 72.233C8.84598 72.233 11.4251 72.7236 13.6366 72.7236C20.394 72.7236 23.4646 68.6692 23.4646 64.9842C23.4646 59.8241 18.5511 59.3336 17.5682 59.3336C9.46028 59.3336 2.45813 65.7223 2.45813 72.7236C2.45813 78.9895 9.0917 81.8134 14.1281 81.8134C19.0416 81.8134 28.8696 80.7077 39.1889 65.5995C45.5759 56.3858 54.0515 46.9274 66.7052 43.9778C56.0172 48.0322 52.7009 50.1208 43.733 63.8794Z" fill="black"/>
<path fill-rule="evenodd" clip-rule="evenodd" d="M35.2565 75.5503C38.8195 75.6731 44.1016 71.7407 44.1016 68.3015C44.1016 66.09 42.1358 65.5995 41.2767 65.5995C34.6431 65.5995 29.9753 72.3559 29.9753 76.0408C29.9753 80.2181 33.906 81.4458 35.8717 81.4458C42.751 81.4458 51.8409 73.3388 51.8409 66.95C51.8409 63.388 49.9989 63.2633 48.6474 63.2633C47.6645 63.2633 47.1731 63.5099 47.1731 63.8785C47.1731 64.369 47.9103 64.6166 48.2789 64.6166C52.8247 64.6166 60.9317 57.6135 60.9317 51.5942C60.9317 47.2941 57.0011 47.1722 55.8953 47.1722C48.7703 47.1722 44.3482 52.9457 40.0481 58.8421C35.8717 64.6175 28.0086 72.2339 18.7959 74.4454C28.2553 71.0044 34.5203 64.0023 38.9423 57.861C43.2425 52.0866 50.1218 46.0673 57.3696 46.0673C59.5811 46.0673 63.5118 47.2959 63.5118 51.4723C63.5118 57.4916 53.1933 65.108 48.6474 65.108C46.6817 65.108 46.4359 64.3699 46.4359 63.8794C46.4359 63.0194 48.2779 62.2831 49.7532 62.2831C51.8409 62.2831 54.7896 63.5117 54.7896 66.9509C54.7896 72.4787 45.6988 82.0601 35.3803 82.0601C31.6945 82.0601 28.5001 79.7266 28.5001 76.5341C28.5001 71.8644 34.7651 64.9861 41.8901 64.9861C44.2244 64.9861 45.575 66.707 45.575 67.9347C45.5759 70.8807 41.0301 75.9188 35.2565 75.5503ZM129.48 72.9693C129.355 72.9693 129.233 73.0921 129.11 73.215C124.933 77.3923 121.003 80.4638 118.669 80.4638C117.071 80.4638 116.457 79.9733 116.457 78.0075C116.457 77.638 116.457 77.2694 116.58 76.9017C121.002 76.7789 127.267 73.8302 127.267 70.6358C127.267 70.0224 126.899 69.0396 125.18 69.0396C122.476 69.0396 118.299 71.7416 115.719 74.5674C111.542 79.358 108.348 80.5857 107.612 80.5857C106.874 80.5857 105.891 80.0952 107.858 77.3914L113.877 69.2844H110.93L107.981 73.2141C104.049 78.4971 100.98 80.7077 99.3817 80.7077C98.5216 80.7077 97.5387 80.0943 99.5045 77.3905L105.648 69.2835H102.576C99.2588 73.7055 97.5387 75.5494 89.5537 80.2172L97.6625 69.2835H94.7139L93.4852 71.1264C93.2395 69.4054 92.1347 68.9149 90.4137 68.9149C87.4651 68.9149 83.7802 71.2483 81.4458 73.8275C77.7609 77.759 73.7065 80.7068 71.495 80.7068C70.1444 80.7068 69.5301 80.3391 69.5301 78.6181C69.5301 78.0048 69.653 77.3895 69.7758 76.899C74.4436 76.899 79.6038 72.8446 79.6038 70.6331C79.6038 70.0197 79.2352 69.1597 77.5152 69.1597C74.4436 69.1597 69.531 72.5989 67.5644 75.9161C65.3529 74.8104 66.2138 71.7389 70.0216 69.2825H66.4595L58.7202 77.5124C60.9317 74.4427 62.7737 71.7389 62.7737 70.756C62.7737 70.0197 62.2823 69.1597 61.0546 69.1597C59.5802 69.1597 54.6667 72.3541 52.3323 75.178C56.6316 71.3703 60.0717 69.895 60.4402 69.895C61.1774 69.895 60.9317 70.6331 60.5631 71.1255L52.8238 81.4439H55.8953L64.9861 71.8617C64.6175 73.7046 65.4775 75.5484 67.3195 76.4067C66.8281 77.1447 66.5824 78.0048 66.5824 78.7401C66.5824 80.583 68.3024 81.6888 70.1453 81.6888C72.4788 81.6888 75.796 79.723 78.9904 77.021C78.6218 77.759 78.499 78.4944 78.499 78.9867C78.499 80.0925 79.359 81.6888 81.3248 81.6888C83.2905 81.6888 85.8697 80.4602 88.0812 78.7401L85.502 82.5497C85.0097 82.7954 84.5191 83.1649 83.9039 83.4097C74.6903 88.5681 67.4433 93.113 67.4433 96.7997C67.4433 98.0283 68.1805 98.8884 69.7768 98.8884C73.8303 98.8884 80.0962 92.991 86.9754 83.6554L88.6964 81.4439C93.3642 78.8648 96.1882 77.0219 98.7692 74.4427L97.6634 75.9161C94.5919 80.0934 97.6634 81.3211 99.014 81.3211C100.733 81.3211 102.822 79.8477 104.788 78.0038C104.174 80.0925 105.403 81.3211 106.999 81.3211C108.842 81.3211 111.667 79.3553 114 77.2667C113.764 77.7222 113.638 78.2269 113.633 78.7401C113.633 80.8287 114.983 81.8116 116.704 81.8116C118.3 81.8116 120.881 80.7059 123.338 78.9867C124.688 78.0038 126.163 76.8981 127.638 75.5475L123.583 81.4439H126.287L145.082 54.2944C143.976 55.4029 136.972 65.3528 129.48 72.9693ZM123.827 69.8978C125.18 69.8978 125.056 70.6358 125.056 71.0035C125.056 73.3388 120.511 76.2865 116.703 76.4085C117.686 72.7245 121.739 69.8978 123.827 69.8978ZM75.9189 69.8978C77.2704 69.8978 77.2704 71.0035 77.2704 71.2501C77.2704 74.075 72.3568 76.2856 69.8987 76.4085C70.8816 72.6016 74.3208 69.8978 75.9189 69.8978ZM83.043 80.3409C82.1848 80.3409 81.4467 80.2181 81.4467 78.3752C81.4467 74.5674 85.8688 69.7758 89.186 69.7758C91.3975 69.7758 91.6423 71.251 91.6423 71.9873C91.6423 76.4094 85.624 80.3409 83.043 80.3409ZM81.5696 88.2031C77.7618 93.6081 72.9702 98.5216 70.0225 98.5216C69.2844 98.5216 68.671 98.2759 68.671 97.4159C68.671 93.6081 76.1646 88.4479 84.1487 83.903C84.3954 83.7801 84.5182 83.7801 84.7639 83.6573L81.5696 88.2031Z" fill="black"/>
<path fill-rule="evenodd" clip-rule="evenodd" d="M143.483 65.7223H115.353L116.458 64.1242C117.072 64.7394 117.441 64.8623 119.528 64.8623C121.494 64.9852 143.483 65.6004 143.483 65.6004C143.729 65.6004 143.729 65.7223 143.483 65.7223ZM152.821 70.0225C151.838 70.7587 149.134 75.0579 143.976 75.0579C142.255 75.0579 141.027 74.075 141.027 72.3559C141.027 68.0558 147.416 64.7394 152.083 64.7394C154.294 64.7394 158.224 65.1071 158.224 70.1444C158.224 76.778 151.96 81.2001 145.694 81.2001C141.394 81.2001 138.815 79.4791 133.777 79.4791C127.636 79.4791 125.425 82.4278 124.687 84.2716C125.055 83.4116 127.267 80.5848 132.919 80.5848C136.849 80.5848 140.166 82.4278 144.22 82.4278C150.854 82.4278 159.944 76.4076 159.944 70.0206C159.944 66.7034 157.978 64.0005 153.065 64.0005C147.044 64.0005 139.675 68.5454 139.675 72.9684C139.675 74.0741 140.657 75.917 143.727 75.917C148.398 75.9189 152.083 71.0035 152.821 70.0225ZM93.6082 91.6423C93.6082 90.2918 92.9929 90.5366 92.9929 90.4137H97.0474C100.242 90.4137 100.732 93.1157 100.732 93.9758C100.732 96.0644 98.6455 97.293 97.0474 97.293H92.9929C92.9929 97.293 93.6082 97.4159 93.6082 96.0644V91.6423ZM96.0654 90.6594H95.5749C95.3291 90.6594 95.2054 90.7823 95.2054 90.9061V96.3101C95.2054 96.6796 95.33 97.0482 95.6977 97.0482H96.3111C97.6635 97.0482 99.015 95.9424 99.015 93.8538C99.014 93.1157 98.6455 90.6594 96.0654 90.6594ZM108.472 92.9929C108.841 92.6252 109.454 92.3795 110.193 92.3795C111.175 92.3795 112.526 93.2395 112.526 94.8358C112.526 96.4321 111.175 97.415 109.824 97.415C109.332 97.415 108.841 97.2921 108.472 96.9244V99.0131C108.472 100.119 108.841 99.9959 108.964 99.9959H106.508C106.508 99.9959 106.998 100.119 106.998 99.0131V93.73C106.998 92.87 106.508 92.87 106.385 92.87L108.472 92.3795V92.9929ZM108.472 96.433C108.594 96.8025 108.841 97.0482 109.332 97.0482C110.192 97.0482 110.807 96.3101 110.807 94.9596C110.807 93.609 110.069 92.8709 109.454 92.8709C109.087 92.8709 108.718 93.1166 108.472 93.3633V96.433ZM120.758 96.1873C120.758 97.4159 121.248 97.1701 121.248 97.293H118.792C118.915 97.1701 119.282 97.4159 119.282 96.1873V93.6081C119.282 92.7481 118.915 92.7481 118.792 92.7481L120.758 92.2575V96.1873ZM119.898 91.0289C120.265 91.0289 120.634 90.7823 120.634 90.5366C120.634 90.2908 120.266 90.046 119.898 90.046C119.528 90.046 119.16 90.2918 119.16 90.5366C119.16 90.7814 119.528 91.0289 119.898 91.0289ZM117.932 96.5568C117.932 97.0473 118.3 97.0473 118.422 97.0473L116.581 97.293V96.6796C116.212 97.1701 115.476 97.4159 114.86 97.4159C113.019 97.4159 113.141 96.0653 113.141 95.3291V93.4861C113.141 92.3804 112.772 92.5032 112.649 92.5032H114.615V95.8205C114.615 96.9262 115.23 97.0491 115.353 97.0491C115.598 97.0491 116.334 96.9262 116.581 96.311V93.609C116.581 92.3804 116.089 92.5032 116.089 92.5032H117.932V96.5568ZM106.385 94.3462H102.575V94.5919C102.575 96.311 103.558 96.9253 104.418 96.9253C105.031 96.9253 105.647 96.5577 106.014 96.1873C105.647 97.0473 104.786 97.6625 103.681 97.6625C101.96 97.6625 100.979 96.1873 100.979 95.0815C100.979 93.2404 102.943 92.2566 103.926 92.2566C104.788 92.2575 106.261 92.7481 106.385 94.3462ZM103.927 92.6252C103.068 92.6252 102.821 93.4852 102.698 94.0986H105.154C105.155 93.2404 104.542 92.6252 103.927 92.6252ZM125.794 96.0644C125.794 96.9244 124.934 97.6625 123.583 97.6625C122.844 97.6625 122.354 97.5378 121.863 97.1701V96.3101C122.109 96.9253 122.722 97.4159 123.46 97.4159C124.075 97.4159 124.565 97.0482 124.565 96.5577C124.565 96.0653 123.95 95.8196 123.215 95.4519C122.6 95.2053 121.617 94.9596 121.617 93.8538C121.617 92.9938 122.477 92.3804 123.828 92.3804C124.198 92.3804 124.688 92.3804 125.426 92.7481V93.6081C124.688 92.6252 123.951 92.6252 123.705 92.6252C123.215 92.6252 122.845 92.9929 122.845 93.3633C122.845 93.8538 123.215 94.0995 124.198 94.469C124.443 94.591 125.794 94.9587 125.794 96.0644ZM130.339 97.5378C130.462 97.4149 130.708 97.415 130.708 96.5568V91.3966C130.708 90.4137 130.339 90.4137 130.216 90.2908L132.182 89.7985V96.5568C132.182 97.415 132.55 97.4149 132.672 97.5378H130.339ZM140.536 97.4159C141.273 95.6967 143.361 92.0118 144.712 90.046H140.29C140.167 90.046 139.922 90.046 139.676 89.7994L138.938 91.5204C139.184 91.2746 139.554 91.1527 139.921 91.1527H143.116C142.87 91.5204 141.887 93.3642 140.782 95.0824C140.044 96.311 139.676 97.0482 139.43 97.4159H140.536ZM134.884 97.4159C135.744 95.6967 137.71 92.0118 139.061 90.046H134.761C134.515 90.046 134.271 90.046 134.025 89.7994L133.41 91.5204C133.655 91.2746 133.902 91.1527 134.27 91.1527H137.464C137.218 91.5204 136.235 93.3642 135.253 95.0824C134.392 96.311 134.024 97.0482 133.777 97.4159H134.884ZM145.818 97.293C146.801 97.293 147.661 96.433 147.661 94.9596C147.661 93.9767 147.045 92.7481 145.94 92.7481C145.326 92.7481 144.711 93.1157 144.343 93.6081L144.959 90.046H147.905C148.028 90.046 148.398 90.046 148.765 89.7994L148.027 91.1518H145.202L144.833 92.8709C145.372 92.4873 146.014 92.2737 146.676 92.2575C148.274 92.2575 149.255 93.6081 149.255 94.7138C149.255 96.433 147.659 97.5387 145.938 97.5387C145.692 97.5387 144.832 97.5387 143.974 97.171L143.849 96.1882C144.712 97.293 145.449 97.293 145.818 97.293ZM134.271 0L133.165 0.491444L124.32 8.96793C123.582 8.47648 122.844 8.35363 121.986 8.47649C120.265 8.84507 119.038 10.8099 119.405 12.8986C119.528 13.39 119.775 13.8814 120.02 14.25L92.7481 41.7672C91.3976 40.2929 89.4309 39.5557 87.5898 39.9243C86.3594 40.17 85.3765 40.9072 84.6412 41.7672L65.7224 27.0257C66.0901 26.1657 66.3367 25.06 66.0901 23.9542C65.7224 21.3741 63.5109 19.6541 61.2994 20.1455C60.6851 20.2684 60.1937 20.5141 59.7022 20.8827L51.3486 14.9863L50.3657 14.8634L50.7343 15.9692L58.105 23.3399C57.9822 24.0771 57.8593 24.8142 58.105 25.6734C58.4736 28.2534 60.6842 29.9735 62.8966 29.482C63.6338 29.2363 64.2472 28.9906 64.7386 28.4992C64.9843 28.1315 65.1072 28.1315 65.2301 28.2534C65.2301 28.2534 72.2322 34.3956 74.6894 36.4842C77.1466 38.5719 81.0782 41.6434 81.8144 42.2577C82.5525 42.9949 83.5354 43.7321 83.5354 43.7321C83.1659 44.8378 83.0431 46.1893 83.2897 47.417C84.0259 50.9799 87.0975 53.1905 90.169 52.5762C93.2405 51.9619 95.2044 48.6447 94.4691 45.0826C94.3462 44.4683 94.0996 43.854 93.731 43.2397L120.634 15.1082C121.372 15.7225 122.355 16.0911 123.338 15.8454C125.181 15.4768 126.409 13.511 125.917 11.5453C125.917 11.1767 125.794 10.931 125.671 10.6852L133.903 1.10393L134.271 0ZM62.0366 27.3943C60.6851 27.6409 59.3336 26.5352 59.0888 24.938C58.8422 23.218 59.7031 21.7436 61.0546 21.375C62.4061 21.1293 63.7566 22.2351 64.0024 23.8323C64.3709 25.5514 63.3881 27.0257 62.0366 27.3943ZM90.5366 48.7694C89.1861 49.0151 87.9575 48.0322 87.7118 46.5579C87.4651 45.0835 88.3252 43.733 89.5528 43.4864C90.7815 43.1178 92.011 44.1007 92.3786 45.5741C92.6253 47.0493 91.7653 48.5236 90.5366 48.7694ZM123.583 14.25C122.477 14.4958 121.371 13.6357 121.126 12.2843C120.881 10.9328 121.617 9.70418 122.723 9.45937C123.828 9.21274 124.934 10.0737 125.181 11.4251C125.425 12.7757 124.688 14.0043 123.583 14.25Z" fill="black"/>
<path fill-rule="evenodd" clip-rule="evenodd" d="M90.2917 47.9093C91.1518 47.7865 91.6423 46.8036 91.5203 45.8207C91.2746 44.8378 90.5375 44.2244 89.6774 44.3464C88.8192 44.4692 88.3269 45.4521 88.4488 46.435C88.6955 47.4179 89.4308 48.1551 90.2917 47.9093Z" fill="black"/>
</svg>
