<svg width="100" height="22" viewBox="0 0 100 22" fill="none" xmlns="http://www.w3.org/2000/svg">
<path fill-rule="evenodd" clip-rule="evenodd" d="M0 21.451V19.3642H1.15935C1.73876 19.3642 2.89865 19.2482 2.89865 17.8569V5.33546C2.89865 4.5818 2.84039 2.78478 1.39133 2.78478H0.0582617L1.56558 0.118103H90.7482V2.78478H8.69596C7.9423 2.78478 6.95666 2.95849 6.95666 4.46582V8.40783C7.13091 8.87125 7.82631 9.04497 8.17427 9.04497C8.52224 9.04497 9.73932 8.98724 9.73932 7.07423H11.4786V13.5092H9.73932C9.73932 12.9293 9.09898 11.9581 8.23254 11.8859C7.5366 11.8282 6.95666 12.0596 6.95666 12.9875V17.8569C6.95666 18.3791 7.59433 19.3642 9.10165 19.3642H10.1455V21.451H0Z" fill="black"/>
<path fill-rule="evenodd" clip-rule="evenodd" d="M51.467 5.79891C51.467 6.26286 52.0464 6.72629 52.3938 6.84227C52.8001 6.55257 54.945 5.33549 56.6261 5.33549C58.3071 5.33549 59.1762 6.2046 59.1762 7.53821V13.9149H55.1182V8.9878C55.1182 8.35013 54.945 7.88617 54.3646 7.82845C53.7852 7.77072 52.2778 8.9878 51.8727 9.56774V18.3792C51.8727 19.1911 52.6841 19.7705 53.38 19.7705V21.4521H46.3079V19.7128C47.0033 19.7128 47.7569 19.4808 47.8152 18.4374V8.6393C47.8152 8.34959 47.3513 7.53767 46.3079 7.53767V5.79891H51.467ZM100 5.79891H92.9284V7.53821C93.9713 7.53821 94.4347 8.34959 94.4347 8.63983V18.4369C94.3775 19.4802 93.6233 19.7122 92.9284 19.7122V21.4515H100V19.77C99.3046 19.77 98.4927 19.1905 98.4927 18.3786V8.75529C98.4927 8.05989 99.2464 7.53821 100 7.53821V5.79891ZM35.8149 5.79891C35.8149 6.26286 36.3943 6.72629 36.7423 6.84227C37.148 6.55257 39.293 5.33549 40.974 5.33549C42.655 5.33549 43.5247 6.2046 43.5247 7.53821V13.9149H39.4672V8.9878C39.4672 8.35013 39.293 7.88617 38.7136 7.82845C38.1336 7.77072 36.6263 8.9878 36.2206 9.56774V18.3792C36.2206 19.1911 37.0325 19.7705 37.7279 19.7705V21.4521H30.6558V19.7128C31.3512 19.7128 32.1049 19.4808 32.1631 18.4374V8.6393C32.1631 8.34959 31.6992 7.53767 30.6558 7.53767V5.79891H35.8149ZM82.8401 5.79891C82.8401 6.26286 83.4206 6.72629 83.768 6.84227C84.1742 6.55257 86.3182 5.33549 88.0003 5.33549C89.6813 5.33549 90.5504 6.2046 90.5504 7.53821V13.9149H86.4924V8.9878C86.4924 8.35013 86.3182 7.88617 85.7387 7.82845C85.1593 7.77072 83.652 8.9878 83.2458 9.56774V18.3792C83.2458 19.1911 84.0572 19.7705 84.7531 19.7705V21.4521H77.6805V19.7128C78.3769 19.7128 79.1306 19.4808 79.1878 18.4374V8.6393C79.1878 8.34959 78.7244 7.53767 77.6805 7.53767V5.79891H82.8401ZM27.5947 16.5816H23.5367V18.1472C23.5367 18.7843 23.4207 20.1185 21.5077 20.1185C19.5946 20.1185 19.0152 18.8426 19.0152 17.9152V14.6109C19.0152 14.3211 19.2472 13.9149 19.6529 13.9149H27.5947V9.6832C27.5947 7.77018 27.189 7.19024 26.3771 6.37885C25.5657 5.56693 22.7247 5.33549 21.4494 5.33549C18.2033 5.33549 17.1594 5.79891 16.232 6.55257C15.3047 7.30623 14.9567 8.87128 14.9567 10.0306V16.5811C14.9567 18.3198 15.3047 19.5374 16.4058 20.6391C17.5068 21.7407 20.8695 21.7407 21.5654 21.7407C22.2608 21.7407 24.5795 21.7984 26.2611 20.5813C27.9426 19.3643 27.5947 16.5816 27.5947 16.5816ZM19.0152 9.39349C19.0152 8.46612 19.3049 7.07478 21.3339 7.07478C23.3629 7.07478 23.5367 8.5821 23.5367 9.39349V11.4802C23.5367 11.8277 23.247 12.1756 22.8413 12.1756H19.7106C19.3632 12.1756 19.0152 11.8859 19.0152 11.5385V9.39349ZM74.0875 18.3786V9.6832C74.0875 8.34959 74.0292 6.9588 72.6373 5.97316C71.2466 4.98752 68.9856 5.04578 68.1159 5.04578C67.2463 5.04578 64.3482 5.04578 63.014 6.5531C61.6809 8.06042 61.9124 9.50948 61.9124 10.0889H65.7101C65.7101 10.0889 65.9699 8.11815 66.4921 7.59647C67.017 7.07158 68.4056 6.49484 69.4779 7.42222C69.8723 7.7643 70.0279 8.20474 70.0279 8.69756V11.19C70.0279 11.4225 69.7959 11.7699 69.5067 11.7699C69.5067 11.7699 64.2306 11.8859 63.3037 12.5819C62.3769 13.2772 61.5644 13.7412 61.5644 16.2919C61.5644 18.842 62.2021 19.8277 62.9563 20.3499C63.71 20.8716 64.0579 21.4515 67.4777 21.4515H75.5937V19.77C74.8989 19.77 74.0875 19.1905 74.0875 18.3786ZM70.0289 19.3643C70.0289 19.5091 69.797 19.7117 69.6238 19.7117H67.6236C66.2029 19.7117 65.7978 18.4946 65.7978 17.7404V15.5083C65.7978 13.335 68.0582 13.3927 68.9567 13.3927C69.8552 13.3927 70.0289 14.1458 70.0289 14.6386V19.3643ZM96.1981 2.75594C98.2276 2.75594 99.8717 2.13911 99.8717 1.37797C99.8717 0.617362 98.2276 0 96.1981 0C94.1685 0 92.5233 0.616827 92.5233 1.37797C92.5233 2.13858 94.1685 2.75594 96.1981 2.75594Z" fill="black"/>
</svg>
