<svg width="160" height="45" viewBox="0 0 160 45" fill="none" xmlns="http://www.w3.org/2000/svg">
<path fill-rule="evenodd" clip-rule="evenodd" d="M94.9822 21.0741H92.6092V16.771H94.9822C97.4098 16.771 98.2876 16.9222 98.2876 18.9183C98.2876 20.9354 97.4098 21.0741 94.9822 21.0741ZM99.7391 23.1542L97.6002 21.9271C100.076 21.8388 101.799 21.3704 101.799 19.0004C101.799 16.7311 99.4611 15.8864 96.2429 15.8864H88.2089L89.6868 17.1598V25.7302L88.2089 27.1358H94.0888L92.6092 25.7366V21.9503H95.6871L98.8809 27.1358H102.887L101.243 25.7302L99.7391 23.1542ZM110.319 26.2765V21.9503H113.651L115.089 23.2194V19.8113L113.651 21.0741H110.319V16.7648H115.354L118.029 18.9476V15.8864H105.623L107.283 17.3214V25.7366L105.623 27.1358H118.029V24.0829L115.354 26.2765H110.319ZM144.421 15.8864H138.397L139.874 17.1472V25.8816L138.397 27.1358H144.421L142.928 25.8816V17.1472L144.421 15.8864ZM150.314 17.7565C150.314 16.5084 151.987 16.1428 153.48 16.1428C155.431 16.1428 157.022 17.3846 157.402 19.139H158.751L158.767 15.6679L157.288 16.4138C156.527 15.8696 154.937 15.3654 153.46 15.3654C150.966 15.3654 147.948 16.0797 147.948 18.9078C147.948 22.5345 157.142 22.1456 157.142 25.041C157.142 26.4573 155.337 26.8816 153.542 26.8816C151.231 26.8816 149.836 25.1924 149.482 23.358H147.981V27.3692L149.505 26.5455C150.849 27.2474 151.986 27.6464 153.473 27.6464C156.766 27.6464 159.365 26.5979 159.365 23.9947C159.365 19.6075 150.314 20.0488 150.314 17.7565ZM129.726 21.5782L131.186 22.7256V24.7047C131.186 25.7491 129.627 26.5918 128.493 26.5918C124.87 26.5918 124.443 23.4862 124.443 21.5028C124.443 18.7356 125.553 16.3402 128.497 16.3402C131.046 16.3402 132.103 17.6514 132.979 19.5969H134.237V15.8864L132.731 16.6049C132.193 16.3108 130.956 15.5629 128.517 15.5629C124.069 15.5629 120.965 17.4433 120.965 21.4502C120.965 25.7366 124.038 27.4385 128.441 27.4385C129.678 27.4385 131.192 27.0203 132.576 26.2114L134.237 27.1487V22.7256L135.685 21.5782H129.726ZM74.8315 27.1358L76.7864 28.8084L78.7369 27.1358L76.7864 25.4928L74.8315 27.1358ZM70.5516 18.9476L73.2441 16.7648H75.2758V22.8643L73.7828 24.1228H79.7878L78.2879 22.8643V16.7648H80.3262L83.0144 18.9476V15.8864H70.5516V18.9476ZM58.8857 17.7565C58.8857 16.5084 60.5582 16.1428 62.0446 16.1428C64.0019 16.1428 65.6064 17.3846 65.9656 19.139H67.3315L67.3458 15.6679L65.855 16.4138C65.104 15.8696 63.5016 15.3654 62.0218 15.3654C59.5305 15.3654 56.5093 16.0797 56.5093 18.9078C56.5093 22.5345 65.7171 22.1456 65.7171 25.041C65.7171 26.4573 63.9176 26.8816 62.1181 26.8816C59.802 26.8816 58.3834 25.1924 58.0485 23.358H56.5337V27.3692L58.0683 26.5455C59.4189 27.2474 60.5617 27.6464 62.0349 27.6464C65.3449 27.6464 67.9411 26.5979 67.9411 23.9947C67.9411 19.6075 58.8857 20.0488 58.8857 17.7565Z" fill="#0A0B09"/>
<path fill-rule="evenodd" clip-rule="evenodd" d="M28.5717 12.8305V14.3092H26.6924L26.7012 16.6456H23.9151V14.3092H21.5875L26.6924 8.96387V12.8305H28.5717Z" fill="#0A0B09"/>
<path fill-rule="evenodd" clip-rule="evenodd" d="M11.0908 0.641983C11.4131 2.00258 12.7059 3.59208 17.7869 3.59208C23.3565 3.59208 27.7563 3.61749 28.763 3.61386C37.9397 3.60177 38.8569 11.5297 38.8569 13.2554C38.8569 15.4311 38.5161 20.0298 33.9477 22.2209C33.1596 22.603 32.5962 22.8557 31.5323 23.1269C33.2847 24.1446 34.8186 27.6001 36.3218 31.2388C37.2898 33.58 38.1232 35.8894 39.098 37.4257C39.6572 38.2931 40.4774 39.2743 41.2656 39.6545C41.6277 39.8314 42.1445 39.8779 42.5572 39.8958C43.4998 39.9127 44.0963 39.4364 44.3653 38.9623C43.4732 39.423 42.4533 38.8649 42.147 38.095C41.8461 37.369 41.942 36.7162 42.3161 36.1248C42.7623 35.4107 43.452 35.1221 44.3387 35.1746C46.9457 35.3115 46.9844 38.2538 46.9844 38.2538C46.9417 39.9124 46.4252 41.0651 45.276 41.9186C44.5318 42.4711 43.6717 42.834 42.4133 42.8851C39.6572 43.002 36.3351 41.2626 33.4339 32.4924C32.3661 29.2599 30.6858 25.9452 28.92 24.5854C28.1 23.9525 26.6061 23.0223 24.4644 23.0223L18.0944 23.0102C18.0944 23.0102 18.0013 24.7798 18.0118 25.2212C18.0426 26.2236 17.6948 31.1661 17.3914 31.7742C16.655 31.9199 14.7057 31.5064 14.3636 31.1121C14.8003 29.403 14.9149 27.3159 14.9787 23.6677C14.9859 23.177 14.9859 22.9703 14.9859 22.9703C14.9859 22.9703 14.9643 11.9455 14.9643 11.9334C15.5301 11.6602 17.4434 11.8964 18.0586 12.4289C18.0634 12.4434 18.0729 19.8786 18.0729 19.8786C18.0729 19.8786 25.7375 19.8689 28.9678 19.8689C33.5508 19.8689 35.7797 17.0915 35.7797 13.2547C35.7797 9.41315 33.2578 6.74619 28.7521 6.74619H17.7906L16.0038 6.74131C13.0744 6.74131 9.77667 4.06206 11.0908 0.641983Z" fill="#0A0B09"/>
<path fill-rule="evenodd" clip-rule="evenodd" d="M42.5399 26.5706L39.6828 29.4485L36.8256 26.5706L39.6828 23.6872L42.5399 26.5706Z" fill="#0A0B09"/>
<path fill-rule="evenodd" clip-rule="evenodd" d="M25.6894 41.7428V24.4669C26.6057 24.489 28.509 25.8929 28.7629 26.4498V35.8698L30.8548 33.7815L32.2366 35.1463L25.6894 41.7428Z" fill="#0A0B09"/>
<path fill-rule="evenodd" clip-rule="evenodd" d="M11.6802 42.7481C9.8909 39.5857 6.41125 36.8601 3.88633 37.8114C3.02245 38.1356 2.58649 38.9564 2.5998 39.7655C2.61063 40.8575 3.33523 41.9126 4.86271 41.7837C5.1809 41.7558 5.67304 41.5859 5.95656 41.3466C6.48601 40.8915 6.73354 40.2157 6.84999 39.7621C7.36071 40.0268 8.0521 40.5314 8.58842 41.1132C7.59873 43.4553 4.39456 44.1797 2.37772 42.9182C1.2451 42.2164 0.438718 40.8694 0.676741 38.8811C0.850541 37.396 1.73329 36.4238 2.75224 35.7757C3.988 34.9864 5.47773 34.8698 7.29648 35.3479C9.31712 35.8796 11.0772 37.226 11.6937 38.1625C12.0521 37.711 12.48 36.9767 12.789 36.3925C13.443 36.7479 14.5475 37.226 15.7351 37.3695C15.1546 38.8158 12.9535 41.914 11.6802 42.7481Z" fill="#0A0B09"/>
<path fill-rule="evenodd" clip-rule="evenodd" d="M22.8924 32.9918C21.3602 35.3105 19.2452 36.2782 17.291 36.4573C13.9132 36.7592 11.0971 34.9142 9.41779 33.3564C9.42979 33.8107 9.3607 34.4736 9.22247 35.4724C8.34087 34.9431 7.57226 34.6303 6.98409 34.4427C7.20055 31.9035 7.17655 29.7814 7.15136 28.8922V27.5777H8.24927C8.8163 29.6939 10.881 31.6685 13.2096 32.7133C15.3935 33.6943 17.8099 33.5474 19.6607 31.9277C20.9379 30.7987 21.5433 27.6275 20.1811 25.5197C19.9051 25.0964 19.5213 24.701 19.0685 24.3273H23.0424C23.3901 24.8705 23.7552 25.6265 23.8707 26.1484C24.368 28.2388 24.1928 31.0352 22.8924 32.9918Z" fill="#0A0B09"/>
<path fill-rule="evenodd" clip-rule="evenodd" d="M8.4116 9.75539C11.4168 6.21964 17.0444 6.43143 20.3207 8.72531C20.4625 8.81991 21.2328 9.37638 21.3635 9.48035L25.3969 8.31567C25.3969 8.31567 20.6712 12.8849 20.6363 12.8849C18.7188 9.69083 12.6891 8.3296 10.891 11.8562C9.96636 13.6691 10.1733 15.6958 12.4442 17.0391V20.4864C12.0647 20.3238 11.6808 20.1658 11.3236 19.9826C5.72776 17.123 6.47868 12.0328 8.4116 9.75539Z" fill="#0A0B09"/>
</svg>
